<svg width="1440" height="1024" viewBox="0 0 1440 1024" fill="none" xmlns="http://www.w3.org/2000/svg">
<g filter="url(#filter0_f_2001_2)">
<path d="M-86.2248 859.517C-77.1386 840.724 -46.0603 799.686 5.5638 785.878C70.0939 768.619 149.088 801.412 204.717 819.246C260.347 837.081 310.413 841.108 384.956 896.912C459.5 952.717 580.216 974.003 602.467 974.003C620.269 974.003 631.395 939.868 634.733 922.801C656.243 931.814 686.357 939.255 634.733 896.912C570.202 843.984 243.101 592.576 194.148 502.829C145.194 413.081 194.704 441.271 327.102 566.112C459.5 690.953 498.44 752.511 556.295 785.878C614.15 819.246 665.329 903.816 665.329 819.246C665.329 761.75 715.469 724.729 754.565 706.919C685.648 657.646 815.581 694.405 796.058 694.405C788.934 694.405 772.974 698.532 754.565 706.919C764.196 713.804 777.71 722.37 796.058 732.951C915.772 801.987 1049.91 863.736 1102.02 885.981C1172.85 914.747 1276.14 939.6 1122.6 808.891C930.681 645.504 1023.58 613.287 1042.5 609.835C1057.63 607.074 1120.38 726.047 1149.86 785.878L1326.76 868.722C1265.57 813.493 1149.97 694.98 1177.12 662.763C1204.27 630.546 1251.85 474.831 1272.25 401C1312.67 405.794 1391.07 424.127 1381.28 459.106C1369.04 502.829 1251.66 659.887 1280.59 677.146C1309.52 694.405 1292.83 764.592 1352.35 694.405C1411.88 624.218 1416.33 606.384 1428.56 532.745C1438.36 473.834 1448.59 441.463 1452.48 432.642C1464.35 420.177 1488.42 400.195 1489.76 419.985C1491.43 444.723 1483.08 472.913 1478.07 532.745C1474.07 580.61 1520.54 503.596 1544.27 459.106C1543.72 562.085 1542.94 774.027 1544.27 797.96C1545.94 827.876 1560.96 977.455 1552.62 1067.2C1544.27 1156.95 1792.94 1204.12 1478.07 1221.96C1163.21 1239.79 460.056 1193.19 327.102 1198.95C194.148 1204.7 350.466 1244.97 166.889 1221.96C20.0274 1203.55 -117.563 1187.44 -168 1181.69L-125.165 908.994L-86.2248 859.517Z" fill="white" fill-opacity="0.1"/>
</g>
<line x1="1440" y1="928.5" y2="928.5" stroke="white" stroke-opacity="0.05"/>
<line x1="1440" y1="824.5" y2="824.5" stroke="white" stroke-opacity="0.05"/>
<line x1="1440" y1="720.5" y2="720.5" stroke="white" stroke-opacity="0.05"/>
<line x1="1440" y1="616.5" y2="616.5" stroke="white" stroke-opacity="0.05"/>
<line x1="1440" y1="512.5" y2="512.5" stroke="white" stroke-opacity="0.05"/>
<line x1="1440" y1="408.5" y2="408.5" stroke="white" stroke-opacity="0.05"/>
<line x1="1440" y1="304.5" y2="304.5" stroke="white" stroke-opacity="0.05"/>
<line x1="1440" y1="200.5" y2="200.5" stroke="white" stroke-opacity="0.05"/>
<line x1="1440" y1="96.5" y2="96.5" stroke="white" stroke-opacity="0.05"/>
<line x1="95.5" y1="1024" x2="95.5" stroke="white" stroke-opacity="0.05"/>
<line x1="199.5" y1="1024" x2="199.5" stroke="white" stroke-opacity="0.05"/>
<line x1="303.5" y1="1024" x2="303.5" stroke="white" stroke-opacity="0.05"/>
<line x1="407.5" y1="1024" x2="407.5" stroke="white" stroke-opacity="0.05"/>
<line x1="511.5" y1="1024" x2="511.5" stroke="white" stroke-opacity="0.05"/>
<line x1="615.5" y1="1024" x2="615.5" stroke="white" stroke-opacity="0.05"/>
<line x1="719.5" y1="1024" x2="719.5" stroke="white" stroke-opacity="0.05"/>
<line x1="823.5" y1="1024" x2="823.5" stroke="white" stroke-opacity="0.05"/>
<line x1="927.5" y1="1024" x2="927.5" stroke="white" stroke-opacity="0.05"/>
<line x1="1031.5" y1="1024" x2="1031.5" stroke="white" stroke-opacity="0.05"/>
<line x1="1135.5" y1="1024" x2="1135.5" stroke="white" stroke-opacity="0.05"/>
<line x1="1239.5" y1="1024" x2="1239.5" stroke="white" stroke-opacity="0.05"/>
<line x1="1343.5" y1="1024" x2="1343.5" stroke="white" stroke-opacity="0.05"/>
<rect x="96" y="96" width="104" height="104" fill="white" fill-opacity="0.05"/>
<rect x="1136" y="200" width="104" height="104" fill="white" fill-opacity="0.05"/>
<rect x="1032" y="824" width="104" height="104" fill="white" fill-opacity="0.05"/>
<rect x="200" y="507" width="104" height="104" fill="white" fill-opacity="0.05"/>
<rect x="1344" y="-8" width="104" height="104" fill="white" fill-opacity="0.05"/>
<defs>
<filter id="filter0_f_2001_2" x="-368" y="201" width="2206" height="1228" filterUnits="userSpaceOnUse" color-interpolation-filters="sRGB">
<feFlood flood-opacity="0" result="BackgroundImageFix"/>
<feBlend mode="normal" in="SourceGraphic" in2="BackgroundImageFix" result="shape"/>
<feGaussianBlur stdDeviation="100" result="effect1_foregroundBlur_2001_2"/>
</filter>
</defs>
</svg>
